<svg id="Ebene_1" data-name="Ebene 1" xmlns="http://www.w3.org/2000/svg" xmlns:xlink="http://www.w3.org/1999/xlink" width="116.02mm" height="31.8mm" viewBox="0 0 328.88 90.13"><defs><style>.cls-1{fill:#b80743;}.cls-2{fill-rule:evenodd;fill:url(#Unbenannter_Verlauf_15);}</style><linearGradient id="Unbenannter_Verlauf_15" x1="-5.3" y1="83.23" x2="73.64" y2="9.62" gradientUnits="userSpaceOnUse"><stop offset="0" stop-color="#5b5c63"/><stop offset="0.36" stop-color="#88878e"/><stop offset="0.58" stop-color="#aaa9b0"/><stop offset="1" stop-color="#e9e9ee"/></linearGradient></defs><path class="cls-1" d="M156.66,30.51h-.17a2.22,2.22,0,0,0-2.16,2.12,2.25,2.25,0,0,0,2.33,2.14h11V58.11a2.36,2.36,0,0,0,4.67-.15V34.78h11.82a2.23,2.23,0,0,0,2.17-2.13A2.25,2.25,0,0,0,184,30.51Zm71,0h-.2a2.25,2.25,0,0,0-2.13,2V57.46h0v0h0a2.26,2.26,0,0,0,2.32,2.13h22.41a2.23,2.23,0,0,0,2.19-2.12,2.26,2.26,0,0,0-2.36-2.13H230.09V48.24h16.8a2.13,2.13,0,1,0-.17-4.24H230.09V34.77h20a2.23,2.23,0,0,0,2.19-2.11,2.25,2.25,0,0,0-2.36-2.13H227.69M112.88,31,100,50.71,87.14,31h0l-.1-.13A2.41,2.41,0,0,0,85.17,30a2.27,2.27,0,0,0-2.33,2v26a2.35,2.35,0,0,0,4.67-.15V39.85l10.54,16h0l.13.16a2.17,2.17,0,0,0,.66.54,2.48,2.48,0,0,0,3.19-.8v0l10.46-15.91V57.94h0a2.34,2.34,0,0,0,4.67,0V32.08h0l0-.16A2.28,2.28,0,0,0,114.85,30a2.39,2.39,0,0,0-2,1m16,9.54,0-.14a7.07,7.07,0,0,1,1.87-3.89c1.53-1.57,3.83-2.38,6.84-2.42s5.4.83,6.94,2.42A7.14,7.14,0,0,1,146.43,41v3H128.84Zm9-10.54h-.67l-.46,0c-4.13.17-7.34,1.39-9.55,3.65a10.87,10.87,0,0,0-3,6.85V57.94h0a2.34,2.34,0,0,0,4.67,0V48.29h17.59v9.65h0a2.34,2.34,0,0,0,4.67,0V40.75h0v-.37h0a10.55,10.55,0,0,0-2.95-6.66C145.83,31.34,142.37,30.11,137.85,30Zm.7,0h0Zm75.12,2.12V44H196.15V32a2.38,2.38,0,0,0-4.69,0V58.1a2.37,2.37,0,0,0,4.7-.15V48.3h17.52v9.8a2.28,2.28,0,0,0,2.34,2A2.26,2.26,0,0,0,218.37,58V32A2.28,2.28,0,0,0,216,30a2.25,2.25,0,0,0-2.34,2.13M289.75,31,276.89,50.71,264,31h0l-.1-.13a2.43,2.43,0,0,0-1.87-.87,2.27,2.27,0,0,0-2.33,2v.11s0,0,0,0V58.09a2.27,2.27,0,0,0,2.34,2,2.25,2.25,0,0,0,2.33-2.15V39.85l10.54,16h0l.13.16a2.17,2.17,0,0,0,.66.54,2.43,2.43,0,0,0,1.14.28,2.46,2.46,0,0,0,2.05-1.08v0l10.46-15.91V57.94h0a2.34,2.34,0,0,0,4.67,0V32.19s0,0,0,0v-.07h0v-.16A2.28,2.28,0,0,0,291.73,30a2.42,2.42,0,0,0-2,1m16.88,9.54a7.06,7.06,0,0,1,1.89-4c1.53-1.57,3.83-2.38,6.83-2.42s5.4.83,6.94,2.42A7,7,0,0,1,324.21,41v3H306.63ZM315,30.05c-4.34.1-7.71,1.32-10,3.67a10.75,10.75,0,0,0-3,6.85V57.94a2.34,2.34,0,0,0,4.67,0V48.29h17.58v9.65a2.34,2.34,0,0,0,4.67,0V40.75h0v-.37a10.46,10.46,0,0,0-2.94-6.67c-2.32-2.37-5.79-3.6-10.3-3.67Z"/><path class="cls-2" d="M.16,89.07h0C4.85,94.1,45,81.17,46,49.63c.34-11-4.92-14.76-8-14.76a7.16,7.16,0,0,0-2.68.56C18.33,42.27-2,85.28.16,89.07Zm46-65.18a2.89,2.89,0,1,0,2.88-3.19,5,5,0,0,0-1.51.43s4.06-7.86,10.66-6C67.39,17.7,71.53,45.87,46.4,72.66a.51.51,0,0,0,.64.8C65.85,60.53,77.49,28.64,64.16,11.07,65.49,8.91,66.67,3,64.67,0a82.59,82.59,0,0,1-7.16,6.21h0c-.16,0-8.42-4.36-16.62.39A7.09,7.09,0,0,0,40,1.29C35.87,7.92,34.75,14,37.43,21.88a4.5,4.5,0,0,0-.49,2.83c.83,1.9,2,1.72,2.62,1.58a53.55,53.55,0,0,0,3.86,5C44.68,27.67,45.7,24.87,46.19,23.89Z"/></svg>